<?xml version="1.0" encoding="UTF-8" standalone="no"?>
<!DOCTYPE svg PUBLIC "-//W3C//DTD SVG 1.1//EN" "http://www.w3.org/Graphics/SVG/1.1/DTD/svg11.dtd">
<svg width="100%" height="100%" viewBox="0 0 800 800" version="1.1" xmlns="http://www.w3.org/2000/svg" xmlns:xlink="http://www.w3.org/1999/xlink" xml:space="preserve" xmlns:serif="http://www.serif.com/" style="fill-rule:evenodd;clip-rule:evenodd;stroke-miterlimit:10;">
    <g id="SVGRepo_bgCarrier">
    </g>
    <g id="SVGRepo_iconCarrier" transform="matrix(11.1111,0,0,11.1111,66.6667,66.6667)">
        <path d="M10.932,51.113C5.16,45.939 1.524,38.425 1.524,30.071C1.524,14.471 14.162,1.833 29.762,1.833C45.349,1.833 58,14.471 58,30.071C58,38.424 54.376,45.925 48.604,51.087C43.607,55.575 36.996,58.309 29.762,58.309C22.528,58.309 15.929,55.589 10.932,51.113Z" style="fill:rgb(255,231,209);fill-rule:nonzero;"/>
        <g transform="matrix(0.0704217,0.000253995,-0.000253995,0.0704217,2.00663,0.191477)">
            <g id="path1" transform="matrix(1.5625,0,0,1.5625,0,0)">
                <path d="M220.318,249.429L291.671,249.429L292.061,254.306L257.191,307.169L219.733,253.784L220.317,249.432L220.318,249.429Z" style="fill:rgb(179,179,179);fill-rule:nonzero;"/>
            </g>
            <g id="path2" transform="matrix(1.5625,0,0,1.5625,0,0)">
                <path d="M220.778,236.169L220.16,265.988L169.57,293.652L169.57,395.057L339.887,395.057L339.887,293.651L292.871,264.428L290.289,234.614L220.779,236.168L220.778,236.168L220.778,236.169Z" style="fill:rgb(240,186,125);fill-rule:nonzero;"/>
            </g>
            <g id="path3" transform="matrix(1.5625,0,0,1.5625,0,0)">
                <path d="M197.401,149.212C197.401,149.212 194.5,142.838 186.712,145.997C178.922,149.152 187.062,180.648 190.039,185.042C193.013,189.434 197.802,186.645 199.546,186.471C202.026,205.247 202.247,218.188 209.763,226.105C216.882,233.601 233.18,248.878 241.766,254.206C247.581,255.434 251.919,256.155 256,256.371C260.079,256.155 264.421,255.432 270.234,254.206C278.819,248.881 295.12,233.601 302.237,226.105C309.751,218.188 309.974,205.25 312.454,186.471C314.198,186.646 318.987,189.434 321.961,185.042C324.937,180.648 333.078,149.151 325.288,145.997C317.498,142.837 314.599,149.212 314.599,149.212C314.599,149.212 322.298,124.479 308.613,100.134C299.235,83.448 277.846,74.794 256.001,74.159C234.156,74.794 212.767,83.448 203.389,100.134C189.704,124.48 197.403,149.212 197.403,149.212L197.401,149.212Z" style="fill:rgb(254,210,152);fill-rule:nonzero;"/>
            </g>
            <g id="path4" transform="matrix(1.5625,0,0,1.5625,0,0)">
                <path d="M195.351,274.76L207.466,269.988L217.229,261.215L251.701,287.36L260.286,287.36L294.769,261.184L316.643,274.763L354.654,339.373L324.551,502.696C302.73,508.748 279.742,511.996 255.993,511.996C236.624,511.996 217.763,509.831 199.625,505.756L145.67,344.535L195.348,274.761L195.351,274.76Z" style="fill:rgb(21,189,178);fill-rule:nonzero;"/>
            </g>
            <g id="path5" transform="matrix(1.5625,0,0,1.5625,0,0)">
                <path d="M305.588,266.591L291.671,249.429L260.29,287.361L287.226,317.291L305.588,266.591Z" style="fill:rgb(33,208,195);fill-rule:nonzero;"/>
            </g>
            <g id="path6" transform="matrix(1.5625,0,0,1.5625,0,0)">
                <path d="M206.384,266.289L220.319,249.429L251.702,287.361L223.696,316.983L206.384,266.289Z" style="fill:rgb(33,208,195);fill-rule:nonzero;"/>
            </g>
            <g id="path7" transform="matrix(1.5625,0,0,1.5625,0,0)">
                <path d="M206.386,266.289L114.142,296.286C110.391,297.503 108.035,300.693 107.271,304.565L80.146,442.023C98.413,459.298 119.226,473.901 141.959,485.233L155.444,441.224C155.601,440.719 156.081,440.404 156.606,440.467C157.129,440.529 157.527,440.948 157.556,441.477L159.503,493.165C189.284,505.3 221.858,511.996 256.002,511.996L256.002,494.834L206.388,266.29L206.386,266.289Z" style="fill:white;fill-rule:nonzero;"/>
            </g>
            <g id="path8" transform="matrix(1.5625,0,0,1.5625,0,0)">
                <path d="M206.386,266.289L195.821,269.535L167.831,317.294L203.166,318.401L181.473,330.752L256.003,494.836L206.389,266.291L206.386,266.289Z" style="fill:rgb(238,243,247);fill-rule:nonzero;"/>
            </g>
            <g id="path9" transform="matrix(1.5625,0,0,1.5625,0,0)">
                <path d="M305.588,266.591L397.86,296.286C401.617,297.495 403.965,300.693 404.729,304.565L431.855,442.025C413.586,459.3 392.772,473.904 370.038,485.237L356.551,441.226C356.396,440.721 355.911,440.406 355.389,440.469C354.866,440.531 354.472,440.952 354.441,441.479L352.499,493.167C322.718,505.302 290.144,511.998 256.002,511.998L256,511.998L256,494.836L305.587,266.594L305.588,266.591Z" style="fill:rgb(238,243,247);fill-rule:nonzero;"/>
            </g>
            <g id="path10" transform="matrix(1.5625,0,0,1.5625,0,0)">
                <path d="M305.588,266.591L311.453,268.375L344.146,317.595L308.811,318.704L330.506,331.056L256,494.836L305.587,266.594L305.587,266.592L305.588,266.592L305.588,266.591Z" style="fill:white;fill-rule:nonzero;"/>
            </g>
            <g id="path11" transform="matrix(1.5625,0,0,1.5625,0,0)">
                <path d="M266.455,493.762C263.344,493.762 260.822,496.278 260.822,499.378C260.822,502.483 263.346,504.998 266.455,504.998C269.564,504.998 272.088,502.482 272.088,499.378C272.088,496.276 269.564,493.762 266.455,493.762Z" style="fill:rgb(217,218,218);fill-rule:nonzero;"/>
            </g>
            <g id="path12" transform="matrix(1.5625,0,0,1.5625,0,0)">
                <path d="M307.877,156.576L313.305,156.386L315.052,150.192L320.165,145.09C323.542,119.662 324.537,80.087 299.298,81.229C299.298,81.229 297.022,52.373 251.497,58.029C205.969,63.687 185.399,93.077 187.85,117.597C190.299,142.117 189.312,145.087 189.312,145.087L194.425,150.191L195.196,157.237L199.661,156.955C199.661,156.955 201.061,147.524 202.462,143.376C203.864,139.229 203.425,130.833 203.425,130.833C203.425,130.833 257.199,134.259 271.731,115.774C280.706,104.359 301.318,84.58 302.356,111.972C302.664,120.095 299.644,132.27 305.423,141.131C311.204,149.993 307.875,156.574 307.875,156.574L307.877,156.574L307.877,156.576Z" style="fill:rgb(102,102,102);fill-rule:nonzero;"/>
            </g>
            <g id="path13" transform="matrix(1.5625,0,0,1.5625,0,0)">
                <path d="M256,494.834L270.536,427.93L260.658,296.05L266.04,293.753L260.287,287.362L251.702,287.362L245.802,293.604L251.34,296.051L241.709,428.998L256.001,494.835L256,494.834Z" style="fill:rgb(15,121,134);fill-rule:nonzero;"/>
            </g>
            <g id="path14" transform="matrix(1.5625,0,0,1.5625,0,0)">
                <path d="M265.954,493.762C263.121,493.762 260.821,496.052 260.821,498.877C260.821,501.705 263.12,503.997 265.954,503.997C268.785,503.997 271.087,501.706 271.087,498.877C271.087,496.053 268.785,493.762 265.954,493.762Z" style="fill:white;fill-rule:nonzero;"/>
            </g>
            <g id="path15" transform="matrix(1.5625,0,0,1.5625,0,0)">
                <path d="M346.395,409.066C336.405,407.341 329.705,397.843 331.428,387.856C333.153,377.868 342.651,371.163 352.638,372.887C362.628,374.612 369.328,384.112 367.605,394.102C365.88,404.089 356.382,410.792 346.393,409.067L346.395,409.066Z" style="fill:rgb(254,254,254);fill-rule:nonzero;"/>
            </g>
            <g id="path16" transform="matrix(1.5625,0,0,1.5625,0,0)">
                <path d="M346.576,408.012C337.168,406.387 330.858,397.447 332.483,388.036C334.108,378.627 343.051,372.316 352.461,373.939C361.869,375.564 368.179,384.509 366.554,393.917C364.929,403.328 355.986,409.635 346.576,408.01L346.576,408.012Z" style="fill:rgb(15,121,134);fill-rule:nonzero;"/>
            </g>
            <g id="path17" transform="matrix(1.5625,0,0,1.5625,0,0)">
                <path d="M347.89,400.405C342.686,399.508 339.194,394.555 340.091,389.35C340.988,384.144 345.941,380.654 351.144,381.551C356.35,382.45 359.842,387.396 358.943,392.604C358.046,397.808 353.095,401.3 347.89,400.403L347.89,400.405Z" style="fill:rgb(235,236,236);fill-rule:nonzero;"/>
            </g>
            <g id="path18" transform="matrix(1.5625,0,0,1.5625,0,0)">
                <path d="M349.015,382.577L353.218,383.303L355.478,370.213L351.275,369.487L349.015,382.577Z" style="fill:rgb(254,254,254);fill-rule:nonzero;"/>
            </g>
            <g id="path19" transform="matrix(1.5625,0,0,1.5625,0,0)">
                <path d="M208.24,412.697L216.116,411.134C219.463,410.468 222.234,408.499 224.003,405.855C225.767,403.211 226.534,399.898 225.868,396.55L216.605,349.883C213.108,332.273 199.332,323.293 183.59,321.302C177.558,320.539 171.234,320.817 165.107,322.03C158.975,323.243 153.031,325.399 147.75,328.406C133.996,336.24 124.727,349.784 128.228,367.422L137.491,414.091C138.157,417.438 140.13,420.207 142.772,421.976L142.779,421.974C145.423,423.743 148.732,424.505 152.079,423.841L159.951,422.278L159.307,419.032L151.433,420.595C148.979,421.082 146.548,420.52 144.611,419.228L144.613,419.226C142.675,417.928 141.227,415.897 140.739,413.445L131.476,366.776C128.299,350.771 136.792,338.435 149.377,331.272C154.351,328.437 159.96,326.404 165.75,325.255C171.54,324.108 177.502,323.849 183.184,324.567C197.593,326.388 210.193,334.548 213.362,350.522L222.627,397.191C223.112,399.643 222.55,402.072 221.256,404.013C219.958,405.949 217.927,407.397 215.472,407.882L207.596,409.445L208.24,412.691L208.24,412.697Z" style="fill:rgb(33,208,195);fill-rule:nonzero;"/>
            </g>
            <g id="path20" transform="matrix(1.5625,0,0,1.5625,0,0)">
                <path d="M219.104,356.799L217.689,349.671C214.086,331.515 199.912,322.261 183.728,320.212C177.579,319.436 171.139,319.714 164.897,320.953C158.655,322.188 152.596,324.388 147.215,327.45C133.069,335.506 123.541,349.452 127.151,367.64L128.568,374.768L133.974,373.692L132.559,366.564C129.492,351.106 137.727,339.171 149.92,332.228C154.794,329.454 160.29,327.463 165.967,326.337C171.642,325.21 177.487,324.957 183.054,325.66C197.015,327.424 209.221,335.31 212.286,350.742L213.701,357.87L219.109,356.796L219.104,356.799Z" style="fill:rgb(77,77,77);fill-rule:nonzero;"/>
            </g>
            <g id="path21" transform="matrix(1.5625,0,0,1.5625,0,0)">
                <path d="M153.704,424.235L157.918,423.398C158.976,424.585 160.613,425.194 162.281,424.864C164.788,424.366 166.417,421.932 165.919,419.423C165.423,416.918 162.987,415.289 160.48,415.787C158.808,416.117 157.53,417.308 157.008,418.808L152.797,419.643L153.707,424.233L153.704,424.235Z" style="fill:rgb(7,102,115);fill-rule:nonzero;"/>
            </g>
            <g id="path22" transform="matrix(1.5625,0,0,1.5625,0,0)">
                <path d="M211.588,412.746L207.379,413.583C206.856,415.082 205.578,416.271 203.909,416.604C201.402,417.1 198.968,415.473 198.47,412.964C197.974,410.459 199.601,408.023 202.106,407.527C203.775,407.197 205.414,407.809 206.467,408.993L210.678,408.156L211.588,412.746Z" style="fill:rgb(7,102,115);fill-rule:nonzero;"/>
            </g>
            <g id="path23" transform="matrix(1.5625,0,0,1.5625,0,0)">
                <path d="M167.458,320.532L165.851,312.436L162.656,313.071L159.465,313.704L161.09,321.88C162.307,321.525 163.539,321.223 164.783,320.976C165.67,320.799 166.56,320.654 167.458,320.532Z" style="fill:rgb(102,102,102);fill-rule:nonzero;"/>
            </g>
            <g id="path24" transform="matrix(1.5625,0,0,1.5625,0,0)">
                <path d="M160.566,419.73C161.324,419.58 161.817,418.84 161.666,418.085C161.516,417.326 160.782,416.832 160.021,416.982C159.262,417.132 158.77,417.87 158.921,418.627C159.072,419.384 159.807,419.88 160.566,419.727L160.566,419.73Z" style="fill:rgb(15,121,134);fill-rule:nonzero;"/>
            </g>
            <g id="path25" transform="matrix(1.5625,0,0,1.5625,0,0)">
                <path d="M202.219,411.446C202.976,411.296 203.467,410.558 203.317,409.803C203.167,409.042 202.433,408.55 201.672,408.7C200.913,408.85 200.421,409.588 200.572,410.347C200.72,411.105 201.458,411.597 202.219,411.446Z" style="fill:rgb(15,121,134);fill-rule:nonzero;"/>
            </g>
            <g id="path26" transform="matrix(1.5625,0,0,1.5625,0,0)">
                <path d="M347.379,400.317C342.456,399.468 339.155,394.787 340.003,389.861C340.852,384.94 345.53,381.637 350.454,382.488C355.377,383.337 358.68,388.018 357.83,392.939C356.979,397.862 352.298,401.165 347.377,400.317L347.379,400.317Z" style="fill:rgb(254,254,254);fill-rule:nonzero;"/>
            </g>
            <g id="path27" transform="matrix(1.5625,0,0,1.5625,0,0)">
                <path d="M206.431,268.717C206.29,268.719 156.571,269.131 164.969,312.629L160.345,313.513C150.878,264.475 206.219,264.023 206.376,264.021L206.431,268.717Z" style="fill:rgb(77,77,77);fill-rule:nonzero;"/>
            </g>
            <g id="path28" transform="matrix(1.5625,0,0,1.5625,0,0)">
                <path d="M305.643,264.243C313.755,264.462 329.435,266.673 341.505,281.354C353.316,295.721 361.596,322.106 355.405,370.482L350.744,369.893C356.737,323.071 348.993,297.861 337.879,284.339C327.02,271.128 312.861,269.137 305.536,268.94L305.646,264.243L305.643,264.243Z" style="fill:rgb(77,77,77);fill-rule:nonzero;"/>
            </g>
        </g>
        <path d="M10.932,51.113C5.16,45.939 1.524,38.425 1.524,30.071C1.524,14.471 14.162,1.833 29.762,1.833C45.349,1.833 58,14.471 58,30.071C58,38.424 54.376,45.925 48.604,51.087C43.607,55.575 36.996,58.309 29.762,58.309C22.528,58.309 15.929,55.589 10.932,51.113Z" style="fill:none;fill-rule:nonzero;stroke:rgb(83,81,81);stroke-width:3px;"/>
    </g>
</svg>
