<?xml version="1.0" encoding="UTF-8" standalone="no"?>
<!DOCTYPE svg PUBLIC "-//W3C//DTD SVG 1.1//EN" "http://www.w3.org/Graphics/SVG/1.1/DTD/svg11.dtd">
<svg width="100%" height="100%" viewBox="0 0 800 800" version="1.1" xmlns="http://www.w3.org/2000/svg" xmlns:xlink="http://www.w3.org/1999/xlink" xml:space="preserve" xmlns:serif="http://www.serif.com/" style="fill-rule:evenodd;clip-rule:evenodd;stroke-miterlimit:10;">
    <g id="SVGRepo_bgCarrier">
    </g>
    <g id="SVGRepo_iconCarrier" transform="matrix(11.1111,0,0,11.1111,66.6667,66.6667)">
        <path d="M10.932,51.113C5.16,45.939 1.524,38.425 1.524,30.071C1.524,14.471 14.162,1.833 29.762,1.833C45.349,1.833 58,14.471 58,30.071C58,38.424 54.376,45.925 48.604,51.087C43.607,55.575 36.996,58.309 29.762,58.309C22.528,58.309 15.929,55.589 10.932,51.113Z" style="fill:rgb(255,231,209);fill-rule:nonzero;stroke:rgb(83,81,81);stroke-width:3px;"/>
        <path d="M48.35,50.783L48.604,51.088C43.607,55.576 36.996,58.31 29.762,58.31C22.528,58.31 15.929,55.589 10.932,51.114L11.212,50.783C11.212,50.783 14.505,48.164 18.383,47.198C22.261,46.232 24.015,43.511 24.015,43.511L24.015,38.756C24.015,38.756 21.192,34.98 21.587,32.361C21.587,32.361 18.091,30.034 20.519,26.64C20.519,26.64 14.899,10.506 29.152,10.341C32.763,10.303 34.555,13.049 34.555,13.049C44.205,12.083 39.043,26.64 39.043,26.64C41.471,30.035 37.975,32.361 37.975,32.361C38.369,34.98 35.547,38.756 35.547,38.756L35.547,43.511C35.547,43.511 37.302,46.232 41.179,47.198C45.057,48.164 48.35,50.783 48.35,50.783Z" style="fill:rgb(83,81,81);fill-rule:nonzero;"/>
        <path d="M48.35,50.783C48.35,50.783 45.057,48.164 41.179,47.198C37.301,46.232 35.547,43.511 35.547,43.511L35.547,38.756C35.547,38.756 38.37,34.98 37.975,32.361C37.975,32.361 41.471,30.034 39.043,26.64C39.043,26.64 44.205,12.082 34.555,13.049C34.555,13.049 32.762,10.303 29.152,10.341C14.899,10.506 20.519,26.64 20.519,26.64C18.091,30.035 21.587,32.361 21.587,32.361C21.193,34.98 24.015,38.756 24.015,38.756L24.015,43.511C24.015,43.511 22.26,46.232 18.383,47.198C14.505,48.164 11.212,50.783 11.212,50.783" style="fill:none;fill-rule:nonzero;stroke:rgb(83,81,81);stroke-width:3px;stroke-linecap:round;stroke-linejoin:round;"/>
    </g>
</svg>
